<?xml version="1.0"?>
<svg xmlns="http://www.w3.org/2000/svg" xmlns:xlink="http://www.w3.org/1999/xlink" version="1.1" viewBox="0 0 224 224" width="50px" height="50px"><g fill="none" fill-rule="nonzero" stroke="none" stroke-width="1" stroke-linecap="butt" stroke-linejoin="miter" stroke-miterlimit="10" stroke-dasharray="" stroke-dashoffset="0" font-family="none" font-weight="none" font-size="none" text-anchor="none" style="mix-blend-mode: normal"><path d="M0,224v-224h224v224z" fill="none"/><g fill="#ffffff"><path d="M154.175,8.925c-4.64576,0 -9.16412,2.41024 -11.655,6.72c-3.70944,6.4288 -1.5113,14.64806 4.9175,18.3575c2.11456,1.22304 4.43093,1.8025 6.71125,1.8025c4.64576,0 9.16412,-2.41024 11.655,-6.72c3.70944,-6.4288 1.50255,-14.64806 -4.92625,-18.3575c-2.11456,-1.22304 -4.42218,-1.8025 -6.7025,-1.8025zM77.28,29.12c-4.32991,0 -7.84,3.51009 -7.84,7.84c0,4.32991 3.51009,7.84 7.84,7.84c4.32991,0 7.84,-3.51009 7.84,-7.84c0,-4.32991 -3.51009,-7.84 -7.84,-7.84zM53.76,31.36c-4.94847,0 -8.96,4.01153 -8.96,8.96c0,4.94847 4.01153,8.96 8.96,8.96c4.94847,0 8.96,-4.01153 8.96,-8.96c0,-4.94847 -4.01153,-8.96 -8.96,-8.96zM98.56,31.36c-3.71135,0 -6.72,3.00865 -6.72,6.72c0,3.71135 3.00865,6.72 6.72,6.72c3.71135,0 6.72,-3.00865 6.72,-6.72c0,-3.71135 -3.00865,-6.72 -6.72,-6.72zM116.48,35.84c-3.71135,0 -6.72,3.00865 -6.72,6.72c0,3.71135 3.00865,6.72 6.72,6.72c3.71135,0 6.72,-3.00865 6.72,-6.72c0,-3.71135 -3.00865,-6.72 -6.72,-6.72zM163.7825,42.58625c-6.18559,0 -11.2,5.01441 -11.2,11.2c0,6.18559 5.01441,11.2 11.2,11.2c6.18559,0 11.2,-5.01441 11.2,-11.2c0,-6.18559 -5.01441,-11.2 -11.2,-11.2zM129.92,44.8c-2.47424,0 -4.48,2.00576 -4.48,4.48c0,2.47424 2.00576,4.48 4.48,4.48c2.47424,0 4.48,-2.00576 4.48,-4.48c0,-2.47424 -2.00576,-4.48 -4.48,-4.48zM191.5375,48.265c-6.18559,0 -11.2,5.01441 -11.2,11.2c0,6.18559 5.01441,11.2 11.2,11.2c6.18559,0 11.2,-5.01441 11.2,-11.2c0,-6.18559 -5.01441,-11.2 -11.2,-11.2zM80.64,51.52c-4.32991,0 -7.84,3.51009 -7.84,7.84c0,4.32991 3.51009,7.84 7.84,7.84c4.32991,0 7.84,-3.51009 7.84,-7.84c0,-4.32991 -3.51009,-7.84 -7.84,-7.84zM58.24,53.76c-4.94847,0 -8.96,4.01153 -8.96,8.96c0,4.94847 4.01153,8.96 8.96,8.96c4.94847,0 8.96,-4.01153 8.96,-8.96c0,-4.94847 -4.01153,-8.96 -8.96,-8.96zM100.8,53.76c-3.71135,0 -6.72,3.00865 -6.72,6.72c0,3.71135 3.00865,6.72 6.72,6.72c3.71135,0 6.72,-3.00865 6.72,-6.72c0,-3.71135 -3.00865,-6.72 -6.72,-6.72zM138.88,53.76c-2.47424,0 -4.48,2.00576 -4.48,4.48c0,2.47424 2.00576,4.48 4.48,4.48c2.47424,0 4.48,-2.00576 4.48,-4.48c0,-2.47424 -2.00576,-4.48 -4.48,-4.48zM118.72,58.8c-3.40207,0 -6.16,2.75793 -6.16,6.16c0,3.40207 2.75793,6.16 6.16,6.16c3.40207,0 6.16,-2.75793 6.16,-6.16c0,-3.40207 -2.75793,-6.16 -6.16,-6.16zM33.6,62.72c-6.18559,0 -11.2,5.01441 -11.2,11.2c0,6.18559 5.01441,11.2 11.2,11.2c6.18559,0 11.2,-5.01441 11.2,-11.2c0,-6.18559 -5.01441,-11.2 -11.2,-11.2zM133.28,69.44c-3.09279,0 -5.6,2.50721 -5.6,5.6c0,3.09279 2.50721,5.6 5.6,5.6c3.09279,0 5.6,-2.50721 5.6,-5.6c0,-3.09279 -2.50721,-5.6 -5.6,-5.6zM161.1575,71.75875c-4.94847,0 -8.96,4.01153 -8.96,8.96c0,4.94847 4.01153,8.96 8.96,8.96c4.94847,0 8.96,-4.01153 8.96,-8.96c0,-4.94847 -4.01153,-8.96 -8.96,-8.96zM188.92125,77.4375c-4.94847,0 -8.96,4.01153 -8.96,8.96c0,4.94847 4.01153,8.96 8.96,8.96c4.94847,0 8.96,-4.01153 8.96,-8.96c0,-4.94847 -4.01153,-8.96 -8.96,-8.96zM89.6,78.4c-4.32991,0 -7.84,3.51009 -7.84,7.84c0,4.32991 3.51009,7.84 7.84,7.84c4.32991,0 7.84,-3.51009 7.84,-7.84c0,-4.32991 -3.51009,-7.84 -7.84,-7.84zM67.2,80.64c-4.94847,0 -8.96,4.01153 -8.96,8.96c0,4.94847 4.01153,8.96 8.96,8.96c4.94847,0 8.96,-4.01153 8.96,-8.96c0,-4.94847 -4.01153,-8.96 -8.96,-8.96zM109.76,80.64c-3.71135,0 -6.72,3.00865 -6.72,6.72c0,3.71135 3.00865,6.72 6.72,6.72c3.71135,0 6.72,-3.00865 6.72,-6.72c0,-3.71135 -3.00865,-6.72 -6.72,-6.72zM210.56,84.76125c-4.94847,0 -8.96,4.01153 -8.96,8.96c0,4.94847 4.01153,8.96 8.96,8.96c4.94847,0 8.96,-4.01153 8.96,-8.96c0,-4.94847 -4.01153,-8.96 -8.96,-8.96zM127.68,85.12c-3.71135,0 -6.72,3.00865 -6.72,6.72c0,3.71135 3.00865,6.72 6.72,6.72c3.71135,0 6.72,-3.00865 6.72,-6.72c0,-3.71135 -3.00865,-6.72 -6.72,-6.72zM42.56,89.6c-6.18559,0 -11.2,5.01441 -11.2,11.2c0,6.18559 5.01441,11.2 11.2,11.2c6.18559,0 11.2,-5.01441 11.2,-11.2c0,-6.18559 -5.01441,-11.2 -11.2,-11.2zM152.87125,93.96625c-4.32991,0 -7.84,3.51009 -7.84,7.84c0,4.32991 3.51009,7.84 7.84,7.84c4.32991,0 7.84,-3.51009 7.84,-7.84c0,-4.32991 -3.51009,-7.84 -7.84,-7.84zM180.62625,99.645c-4.32991,0 -7.84,3.51009 -7.84,7.84c0,4.32991 3.51009,7.84 7.84,7.84c4.32991,0 7.84,-3.51009 7.84,-7.84c0,-4.32991 -3.51009,-7.84 -7.84,-7.84zM94.61375,106.68c-3.71135,0 -6.72,3.00865 -6.72,6.72c0,3.71135 3.00865,6.72 6.72,6.72c3.71135,0 6.72,-3.00865 6.72,-6.72c0,-3.71135 -3.00865,-6.72 -6.72,-6.72zM13.44,107.52c-7.42336,0 -13.44,6.01664 -13.44,13.44c0,7.42336 6.01664,13.44 13.44,13.44c7.42336,0 13.44,-6.01664 13.44,-13.44c0,-7.42336 -6.01664,-13.44 -13.44,-13.44zM201.705,107.93125c-4.32991,0 -7.84,3.51009 -7.84,7.84c0,4.32991 3.51009,7.84 7.84,7.84c4.32991,0 7.84,-3.51009 7.84,-7.84c0,-4.32991 -3.51009,-7.84 -7.84,-7.84zM77.27125,111.3525c-3.09279,0 -5.6,2.50721 -5.6,5.6c0,3.09279 2.50721,5.6 5.6,5.6c3.09279,0 5.6,-2.50721 5.6,-5.6c0,-3.09279 -2.50721,-5.6 -5.6,-5.6zM141.82,111.9825c-3.71135,0 -6.72,3.00865 -6.72,6.72c0,3.71135 3.00865,6.72 6.72,6.72c3.71135,0 6.72,-3.00865 6.72,-6.72c0,-3.71135 -3.00865,-6.72 -6.72,-6.72zM59.92,116.025c-2.47424,0 -4.48,2.00576 -4.48,4.48c0,2.47424 2.00576,4.48 4.48,4.48c2.47424,0 4.48,-2.00576 4.48,-4.48c0,-2.47424 -2.00576,-4.48 -4.48,-4.48zM169.58375,117.66125c-3.71135,0 -6.72,3.00865 -6.72,6.72c0,3.71135 3.00865,6.72 6.72,6.72c3.71135,0 6.72,-3.00865 6.72,-6.72c0,-3.71135 -3.00865,-6.72 -6.72,-6.72zM99.6975,124.4425c-3.71135,0 -6.72,3.00865 -6.72,6.72c0,3.71135 3.00865,6.72 6.72,6.72c3.71135,0 6.72,-3.00865 6.72,-6.72c0,-3.71135 -3.00865,-6.72 -6.72,-6.72zM128.975,125.265c-3.71135,0 -6.72,3.00865 -6.72,6.72c0,3.71135 3.00865,6.72 6.72,6.72c3.71135,0 6.72,-3.00865 6.72,-6.72c0,-3.71135 -3.00865,-6.72 -6.72,-6.72zM190.1025,126.91875c-3.71135,0 -6.72,3.00865 -6.72,6.72c0,3.71135 3.00865,6.72 6.72,6.72c3.71135,0 6.72,-3.00865 6.72,-6.72c0,-3.71135 -3.00865,-6.72 -6.72,-6.72zM56.63875,128.26625c-2.47424,0 -4.48,2.00576 -4.48,4.48c0,2.47424 2.00576,4.48 4.48,4.48c2.47424,0 4.48,-2.00576 4.48,-4.48c0,-2.47424 -2.00576,-4.48 -4.48,-4.48zM75.81875,128.44125c-3.40207,0 -6.16,2.75793 -6.16,6.16c0,3.40207 2.75793,6.16 6.16,6.16c3.40207,0 6.16,-2.75793 6.16,-6.16c0,-3.40207 -2.75793,-6.16 -6.16,-6.16zM156.73875,131.50375c-3.40207,0 -6.16,2.75793 -6.16,6.16c0,3.40207 2.75793,6.16 6.16,6.16c3.40207,0 6.16,-2.75793 6.16,-6.16c0,-3.40207 -2.75793,-6.16 -6.16,-6.16zM140.72625,139.6325c-3.09279,0 -5.6,2.50721 -5.6,5.6c0,3.09279 2.50721,5.6 5.6,5.6c3.09279,0 5.6,-2.50721 5.6,-5.6c0,-3.09279 -2.50721,-5.6 -5.6,-5.6zM177.2575,140.20125c-3.71135,0 -6.72,3.00865 -6.72,6.72c0,3.71135 3.00865,6.72 6.72,6.72c3.71135,0 6.72,-3.00865 6.72,-6.72c0,-3.71135 -3.00865,-6.72 -6.72,-6.72zM57.54,141.02375c-3.71135,0 -6.72,3.00865 -6.72,6.72c0,3.71135 3.00865,6.72 6.72,6.72c3.71135,0 6.72,-3.00865 6.72,-6.72c0,-3.71135 -3.00865,-6.72 -6.72,-6.72zM108.80625,141.33875c-4.32991,0 -7.84,3.51009 -7.84,7.84c0,4.32991 3.51009,7.84 7.84,7.84c4.32991,0 7.84,-3.51009 7.84,-7.84c0,-4.32991 -3.51009,-7.84 -7.84,-7.84zM80.9025,145.64375c-3.71135,0 -6.72,3.00865 -6.72,6.72c0,3.71135 3.00865,6.72 6.72,6.72c3.71135,0 6.72,-3.00865 6.72,-6.72c0,-3.71135 -3.00865,-6.72 -6.72,-6.72zM164.71875,150.71875c-2.47424,0 -4.48,2.00576 -4.48,4.48c0,2.47424 2.00576,4.48 4.48,4.48c2.47424,0 4.48,-2.00576 4.48,-4.48c0,-2.47424 -2.00576,-4.48 -4.48,-4.48zM152.4775,154c-2.47424,0 -4.48,2.00576 -4.48,4.48c0,2.47424 2.00576,4.48 4.48,4.48c2.47424,0 4.48,-2.00576 4.48,-4.48c0,-2.47424 -2.00576,-4.48 -4.48,-4.48zM122.92,157.9375c-4.94847,0 -8.96,4.01153 -8.96,8.96c0,4.94847 4.01153,8.96 8.96,8.96c4.94847,0 8.96,-4.01153 8.96,-8.96c0,-4.94847 -4.01153,-8.96 -8.96,-8.96zM62.62375,158.7775c-3.71135,0 -6.72,3.00865 -6.72,6.72c0,3.71135 3.00865,6.72 6.72,6.72c3.71135,0 6.72,-3.00865 6.72,-6.72c0,-3.71135 -3.00865,-6.72 -6.72,-6.72zM90.01125,162.54c-4.32991,0 -7.84,3.51009 -7.84,7.84c0,4.32991 3.51009,7.84 7.84,7.84c4.32991,0 7.84,-3.51009 7.84,-7.84c0,-4.32991 -3.51009,-7.84 -7.84,-7.84zM144.935,171.43875c-6.18559,0 -11.2,5.01441 -11.2,11.2c0,6.18559 5.01441,11.2 11.2,11.2c6.18559,0 11.2,-5.01441 11.2,-11.2c0,-6.18559 -5.01441,-11.2 -11.2,-11.2zM72.2925,176.65375c-4.32991,0 -7.84,3.51009 -7.84,7.84c0,4.32991 3.51009,7.84 7.84,7.84c4.32991,0 7.84,-3.51009 7.84,-7.84c0,-4.32991 -3.51009,-7.84 -7.84,-7.84zM104.11625,179.13875c-4.94847,0 -8.96,4.01153 -8.96,8.96c0,4.94847 4.01153,8.96 8.96,8.96c4.94847,0 8.96,-4.01153 8.96,-8.96c0,-4.94847 -4.01153,-8.96 -8.96,-8.96zM174.7025,180.45125c-2.28032,0 -4.58794,0.58394 -6.7025,1.8025c-6.4288,3.70944 -8.63142,11.9287 -4.9175,18.3575c2.49088,4.30976 7.00924,6.72 11.655,6.72c2.28032,0 4.58794,-0.57519 6.7025,-1.79375c6.4288,-3.70944 8.63142,-11.93745 4.9175,-18.36625c-2.49088,-4.30976 -7.00924,-6.72 -11.655,-6.72zM126.14,192.64c-6.18559,0 -11.2,5.01441 -11.2,11.2c0,6.18559 5.01441,11.2 11.2,11.2c6.18559,0 11.2,-5.01441 11.2,-11.2c0,-6.18559 -5.01441,-11.2 -11.2,-11.2zM86.9575,194.215c-4.94847,0 -8.96,4.01153 -8.96,8.96c0,4.94847 4.01153,8.96 8.96,8.96c4.94847,0 8.96,-4.01153 8.96,-8.96c0,-4.94847 -4.01153,-8.96 -8.96,-8.96z"/></g></g></svg>
