<svg xmlns="http://www.w3.org/2000/svg" viewBox="0 0 1052.4 744.09">
  <g transform="translate(0 -308.27)">
    <rect width="1050.4" height="753.33" x="-1.595" y="305.63" fill="#666" fill-rule="evenodd" stroke="#0082c8" stroke-dasharray=".944 3.776" stroke-linecap="round" stroke-linejoin="round" stroke-width=".944" opacity=".54" ry="9.611"/>
    <g fill="#f9f9f9" fill-rule="evenodd" stroke="#0082c8" stroke-dasharray=".831 3.324" stroke-linecap="round" stroke-linejoin="round" stroke-width=".831" transform="matrix(1 0 0 .57108 0 625.447)">
      <rect width="33.335" height="573.77" x="480.83" y="165.28" opacity=".54" ry="7.449"/>
      <rect width="33.335" height="573.77" x="480.83" y="165.28" opacity=".54" ry="7.449"/>
      <rect width="33.335" height="573.77" x="480.83" y="165.28" opacity=".54" ry="7.449"/>
    </g>
    <g fill="none" stroke="#fdfeff" stroke-linecap="round" stroke-linejoin="round" stroke-width="5">
    <!-- slot 15 -->
      <g transform="translate(4 208)" id="slot15">
        <rect width="234.36" height="115.16" x="6.061" y="489.71" opacity=".54" rx="0" ry="0"/>
        <rect width="234.36" height="115.16" x="6.061" y="489.71" opacity=".54" rx="0" ry="0"/>
        <rect width="234.36" height="115.16" x="6.061" y="489.71" opacity=".54" rx="0" ry="0"/>
      </g>
          <!-- slot 14 -->
      <g transform="translate(4 322)" id="slot14">
        <rect width="234.36" height="115.16" x="6.061" y="489.71" opacity=".54" rx="0" ry="0"/>
        <rect width="234.36" height="115.16" x="6.061" y="489.71" opacity=".54" rx="0" ry="0"/>
        <rect width="234.36" height="115.16" x="6.061" y="489.71" opacity=".54" rx="0" ry="0"/>
      </g>
          <!-- slot 13 -->
      <g transform="translate(4 438)" id="slot13" >
        <rect width="234.36" height="115.16" x="6.061" y="489.71" opacity=".54" rx="0" ry="0"/>
        <rect width="234.36" height="115.16" x="6.061" y="489.71" opacity=".54" rx="0" ry="0"/>
        <rect width="234.36" height="115.16" x="6.061" y="489.71" opacity=".54" rx="0" ry="0"/>
      </g>
    </g>
    <g fill="#fff" fill-rule="evenodd">
      <g stroke="#fdfeff" stroke-linecap="round" stroke-linejoin="round" transform="matrix(.49 0 0 .49 491.6 424.97)">
        <rect width="24.602" height="89.602" x="-676.16" y="300.2" stroke-width="3.398" opacity=".54" rx="0" ry="0" transform="rotate(-90)"/>
        <rect width="32.574" height="172.57" x="356.21" y="653.58" stroke-width="5.426" opacity=".54" rx="0" ry="0"/>
      </g>
      <g stroke="#fdfeff" stroke-linecap="round" stroke-linejoin="round" transform="matrix(.49 0 0 .49 491.6 424.97)">
        <rect width="24.602" height="89.602" x="-676.16" y="300.2" stroke-width="3.398" opacity=".54" rx="0" ry="0" transform="rotate(-90)"/>
        <rect width="32.574" height="172.57" x="356.21" y="653.58" stroke-width="5.426" opacity=".54" rx="0" ry="0"/>
      </g>
      <g stroke="#fdfeff" stroke-linecap="round" stroke-linejoin="round" transform="matrix(.49 0 0 .49 491.6 424.97)">
        <rect width="24.602" height="89.602" x="-676.16" y="300.2" stroke-width="3.398" opacity=".54" rx="0" ry="0" transform="rotate(-90)"/>
        <rect width="32.574" height="172.57" x="356.21" y="653.58" stroke-width="5.426" opacity=".54" rx="0" ry="0"/>
      </g>
      <g stroke="#fdfeff" stroke-linecap="round" stroke-linejoin="round" transform="matrix(.49 0 0 .49 491.6 424.97)">
        <rect width="24.602" height="89.602" x="-676.16" y="300.2" stroke-width="3.398" opacity=".54" rx="0" ry="0" transform="rotate(-90)"/>
        <rect width="32.574" height="172.57" x="356.21" y="653.58" stroke-width="5.426" opacity=".54" rx="0" ry="0"/>
      </g>
      <path d="M616.06 750.506l35.901-22.687 1.698 42.435z"/>
      <g stroke="#fdfeff" stroke-linecap="round" stroke-linejoin="round" transform="matrix(.49 0 0 .49 491.6 424.97)">
        <rect width="24.602" height="89.602" x="-676.16" y="300.2" stroke-width="3.398" opacity=".54" rx="0" ry="0" transform="rotate(-90)"/>
        <rect width="32.574" height="172.57" x="356.21" y="653.58" stroke-width="5.426" opacity=".54" rx="0" ry="0"/>
      </g>
    </g>
    <g fill="none" stroke="#fdfeff" stroke-linecap="round" stroke-linejoin="round" stroke-width="5">

    <!--slot 1-->
      <g transform="matrix(0 -1 -1 0 608.86 552.34)" id="slot1" >
        <rect width="234.36" height="115.16" x="6.061" y="489.71" opacity=".54" rx="0" ry="0"/>
        <rect width="234.36" height="115.16" x="6.061" y="489.71" opacity=".54" rx="0" ry="0"/>
        <rect width="234.36" height="115.16" x="6.061" y="489.71" opacity=".54" rx="0" ry="0"/>
      </g>
      <!--Slot 2-->
      <g transform="rotate(-90 90.89 461.3)" id="slot2">
        <rect width="234.36" height="115.16" x="6.061" y="489.71" opacity=".54" rx="0" ry="0"/>
        <rect width="234.36" height="115.16" x="6.061" y="489.71" opacity=".54" rx="0" ry="0"/>
        <rect width="234.36" height="115.16" x="6.061" y="489.71" opacity=".54" rx="0" ry="0"/>
      </g>
      <!--slot 3-->
      <g transform="matrix(0 -1 -1 0 839.26 551.269)" id="slot3">
        <rect width="234.36" height="115.16" x="6.061" y="489.71" opacity=".54" rx="0" ry="0"/>
        <rect width="234.36" height="115.16" x="6.061" y="489.71" opacity=".54" rx="0" ry="0"/>
        <rect width="234.36" height="115.16" x="6.061" y="489.71" opacity=".54" rx="0" ry="0"/>
      </g>
      <!--slot 4-->
      <g transform="rotate(-90 205.554 345.564)" id="slot4">
        <rect width="234.36" height="115.16" x="6.061" y="489.71" opacity=".54" rx="0" ry="0"/>
        <rect width="234.36" height="115.16" x="6.061" y="489.71" opacity=".54" rx="0" ry="0"/>
        <rect width="234.36" height="115.16" x="6.061" y="489.71" opacity=".54" rx="0" ry="0"/>
      </g>
    </g>
    <!--slot 5-->
    <g  id="slot5" fill="none">
    <rect width="234.36"  height="115.16" x="-546.28" y="-581.16"  stroke="#fdfeff" stroke-linecap="round" stroke-linejoin="round" stroke-width="5" opacity=".54" rx="0" ry="0" transform="matrix(0 -1 -1 0 0 0)"/>
    <rect width="234.36" height="115.16" x="-546.28" y="-581.16"  stroke="#fdfeff" stroke-linecap="round" stroke-linejoin="round" stroke-width="5" opacity=".54" rx="0" ry="0" transform="matrix(0 -1 -1 0 0 0)"/>

    <rect width="234.36" height="115.16" x="-546.28" y="-581.16"  stroke="#fdfeff" stroke-linecap="round" stroke-linejoin="round" stroke-width="5" opacity=".54" rx="0" ry="0" transform="matrix(0 -1 -1 0 0 0)"/>
        </g>
  <!--slot 6-->
        <g id="slot6" fill="none">
    <rect width="234.36" height="115.16" x="-546.13" y="581.3"  stroke="#fdfeff" stroke-linecap="round" stroke-linejoin="round" stroke-width="5" opacity=".54" rx="0" ry="0" transform="rotate(-90)"/>
    <rect width="234.36" height="115.16" x="-546.13" y="581.3"  stroke="#fdfeff" stroke-linecap="round" stroke-linejoin="round" stroke-width="5" opacity=".54" rx="0" ry="0" transform="rotate(-90)"/>
    <rect width="234.36" height="115.16" x="-546.13" y="581.3"  stroke="#fdfeff" stroke-linecap="round" stroke-linejoin="round" stroke-width="5" opacity=".54" rx="0" ry="0" transform="rotate(-90)"/>
    </g>
    <!-- slot7 -->
    <g id="slot7" fill="none">
    <rect width="234.36" height="115.16" x="-545.2" y="-811.55"  stroke="#fdfeff" stroke-linecap="round" stroke-linejoin="round" stroke-width="5" opacity=".54" rx="0" ry="0" transform="matrix(0 -1 -1 0 0 0)"/>
    <rect width="234.36" height="115.16" x="-545.2" y="-811.55"  stroke="#fdfeff" stroke-linecap="round" stroke-linejoin="round" stroke-width="5" opacity=".54" rx="0" ry="0" transform="matrix(0 -1 -1 0 0 0)"/>
    <rect width="234.36" height="115.16" x="-546.28" y="-811.55"  stroke="#fdfeff" stroke-linecap="round" stroke-linejoin="round" stroke-width="5" opacity=".54" rx="0" ry="0" transform="matrix(0 -1 -1 0 0 0)"/>
    </g>
    <!-- slot8 -->
    <g id="slot8" fill="none">
    <rect width="234.36" height="115.16" x="-545.06" y="811.7"  stroke="#fdfeff" stroke-linecap="round" stroke-linejoin="round" stroke-width="5" opacity=".54" rx="0" ry="0" transform="rotate(-90)"/>
    <rect width="234.36" height="115.16" x="-545.06" y="811.7"  stroke="#fdfeff" stroke-linecap="round" stroke-linejoin="round" stroke-width="5" opacity=".54" rx="0" ry="0" transform="rotate(-90)"/>
    <rect width="234.36" height="115.16" x="-545.06" y="811.7" stroke="#fdfeff" stroke-linecap="round" stroke-linejoin="round" stroke-width="5" opacity=".54" rx="0" ry="0" transform="rotate(-90)"/>
    </g>
        <!-- slot9 -->
    <g id="slot9" fill="none">
    <rect width="234.36" height="115.16" x="-545.06" y="925.7" fill="none" stroke="#fdfeff" stroke-linecap="round" stroke-linejoin="round" stroke-width="5" opacity=".54" rx="0" ry="0" transform="rotate(-90)"/>
    <rect width="234.36" height="115.16" x="-545.06" y="925.7" fill="none" stroke="#fdfeff" stroke-linecap="round" stroke-linejoin="round" stroke-width="5" opacity=".54" rx="0" ry="0" transform="rotate(-90)"/>
    <rect width="234.36" height="115.16" x="-546.28" y="925.7" fill="none" stroke="#fdfeff" stroke-linecap="round" stroke-linejoin="round" stroke-width="5" opacity=".54" rx="0" ry="0" transform="rotate(-90)"/>
    </g>
    <g fill="none" stroke="#fdfeff" stroke-linecap="round" stroke-linejoin="round" stroke-width="5">
    <!--slot 10-->
      <g transform="translate(800 206)"  id="slot10"> 
        <rect width="234.36" height="115.16" x="6.061" y="489.71" opacity=".54" rx="0" ry="0"/>
        <rect width="234.36" height="115.16" x="6.061" y="489.71" opacity=".54" rx="0" ry="0"/>
        <rect width="234.36" height="115.16" x="6.061" y="489.71" opacity=".54" rx="0" ry="0"/>
      </g>
       <!--slot 11-->
      <g transform="translate(800 320)"  id="slot11">
        <rect width="234.36" height="115.16" x="6.061" y="489.71" opacity=".54" rx="0" ry="0"/>
        <rect width="234.36" height="115.16" x="6.061" y="489.71" opacity=".54" rx="0" ry="0"/>
        <rect width="234.36" height="115.16" x="6.061" y="489.71" opacity=".54" rx="0" ry="0"/>
      </g>
       <!--slot 12-->
      <g transform="translate(800 436)"  id="slot12">
        <rect width="234.36" height="115.16" x="6.061" y="489.71" opacity=".54" rx="0" ry="0"/>
        <rect width="234.36" height="115.16" x="6.061" y="489.71" opacity=".54" rx="0" ry="0"/>
        <rect width="234.36" height="115.16" x="6.061" y="489.71" opacity=".54" rx="0" ry="0"/>
      </g>
    </g>
    <g fill="#fff" fill-rule="evenodd">
      <g stroke="#fdfeff" stroke-linecap="round" stroke-linejoin="round" transform="matrix(.49 0 0 .49 491.6 424.97)" >
        <rect width="24.602" height="89.602" x="-676.16" y="300.2" stroke-width="3.398" opacity=".54" rx="0" ry="0" transform="rotate(-90)"/>
        <rect width="32.574" height="172.57" x="356.21" y="653.58" stroke-width="5.426" opacity=".54" rx="0" ry="0"/>
      </g>
      <g stroke="#fdfeff" stroke-linecap="round" stroke-linejoin="round" transform="matrix(.49 0 0 .49 491.6 424.97)">
        <rect width="24.602" height="89.602" x="-676.16" y="300.2" stroke-width="3.398" opacity=".54" rx="0" ry="0" transform="rotate(-90)"/>
        <rect width="32.574" height="172.57" x="356.21" y="653.58" stroke-width="5.426" opacity=".54" rx="0" ry="0"/>
      </g>
      <g stroke="#fdfeff" stroke-linecap="round" stroke-linejoin="round" transform="matrix(.49 0 0 .49 491.6 424.97)">
        <rect width="24.602" height="89.602" x="-676.16" y="300.2" stroke-width="3.398" opacity=".54" rx="0" ry="0" transform="rotate(-90)"/>
        <rect width="32.574" height="172.57" x="356.21" y="653.58" stroke-width="5.426" opacity=".54" rx="0" ry="0"/>
      </g>
      <g stroke="#fdfeff" stroke-linecap="round" stroke-linejoin="round" transform="matrix(.49 0 0 .49 491.6 424.97)">
        <rect width="24.602" height="89.602" x="-676.16" y="300.2" stroke-width="3.398" opacity=".54" rx="0" ry="0" transform="rotate(-90)"/>
        <rect width="32.574" height="172.57" x="356.21" y="653.58" stroke-width="5.426" opacity=".54" rx="0" ry="0"/>
      </g>
      <path d="M616.06 750.506l35.901-22.687 1.698 42.435z"/>
      <g stroke="#fdfeff" stroke-linecap="round" stroke-linejoin="round" transform="matrix(.49 0 0 .49 491.6 424.97)">
        <rect width="24.602" height="89.602" x="-676.16" y="300.2" stroke-width="3.398" opacity=".54" rx="0" ry="0" transform="rotate(-90)"/>
        <rect width="32.574" height="172.57" x="356.21" y="653.58" stroke-width="5.426" opacity=".54" rx="0" ry="0"/>
      </g>
    </g>
    <g fill="#fff" fill-rule="evenodd">
      <path d="M338.468 879.106l51.379.97-26.53 44.01z"/>
      <rect width="15.961"  height="84.561" x="-371.35" y="-887.71" stroke="#fdfeff" stroke-linecap="round" stroke-linejoin="round" stroke-width="2.659" opacity=".54" rx="0" ry="0" transform="scale(-1)"/>
      <rect width="15.961" height="84.561" x="-371.35" y="-887.71" stroke="#fdfeff" stroke-linecap="round" stroke-linejoin="round" stroke-width="2.659" opacity=".54" rx="0" ry="0" transform="scale(-1)"/>
      <rect width="15.961" height="84.561" x="-371.35" y="-887.71" stroke="#fdfeff" stroke-linecap="round" stroke-linejoin="round" stroke-width="2.659" opacity=".54" rx="0" ry="0" transform="scale(-1)"/>
      <rect width="15.961" height="84.561" x="-371.35" y="-887.71" stroke="#fdfeff" stroke-linecap="round" stroke-linejoin="round" stroke-width="2.659" opacity=".54" rx="0" ry="0" transform="scale(-1)"/>
    </g>
    <text x="51.496" y="362.952" font-family="Sans" font-size="40" letter-spacing="0" word-spacing="0">
      <tspan x="51.496" y="362.952" fill="#fff">1</tspan>
    </text>
    <text x="51.496" y="362.952" font-family="Sans" font-size="40" letter-spacing="0" word-spacing="0">
      <tspan x="51.496" y="362.952" fill="#fff">1</tspan>
    </text>
    <text x="171.496" y="362.952" font-family="Sans" font-size="40" letter-spacing="0" word-spacing="0">
      <tspan x="171.496" y="362.952" fill="#fff">2</tspan>
    </text>
    <text x="283.496" y="362.952" font-family="Sans" font-size="40" letter-spacing="0" word-spacing="0">
      <tspan x="283.496" y="362.952" fill="#fff">3</tspan>
    </text>
    <text x="397.496" y="362.952" font-family="Sans" font-size="40" letter-spacing="0" word-spacing="0">
      <tspan x="397.496" y="362.952" fill="#fff">4</tspan>
    </text>
    <text x="515.496" y="362.952" font-family="Sans" font-size="40" letter-spacing="0" word-spacing="0">
      <tspan x="515.496" y="362.952" fill="#fff">5</tspan>
    </text>
    <text x="629.496" y="362.952" font-family="Sans" font-size="40" letter-spacing="0" word-spacing="0">
      <tspan x="629.496" y="362.952" fill="#fff">6</tspan>
    </text>
    <text x="745.496" y="362.952" font-family="Sans" font-size="40" letter-spacing="0" word-spacing="0">
      <tspan x="745.496" y="362.952" fill="#fff">7</tspan>
    </text>
    <text x="859.496" y="362.952" font-family="Sans" font-size="40" letter-spacing="0" word-spacing="0">
      <tspan x="859.496" y="362.952" fill="#fff">8</tspan>
    </text>
    <text x="971.496" y="362.952" font-family="Sans" font-size="40" letter-spacing="0" word-spacing="0">
      <tspan x="971.496" y="362.952" fill="#fff">9</tspan>
    </text>
    <text x="723.734" y="-989.238" font-family="Sans" font-size="40" letter-spacing="0" transform="rotate(90)" word-spacing="0">
      <tspan x="723.734" y="-989.238" fill="#fff">10</tspan>
    </text>
    <text x="831.734" y="-989.495" font-family="Sans" font-size="40" letter-spacing="0" transform="rotate(90)" word-spacing="0">
      <tspan x="831.734" y="-989.495" fill="#fff">11</tspan>
    </text>
    <text x="951.734" y="-989.78" font-family="Sans" font-size="40" letter-spacing="0" transform="rotate(90)" word-spacing="0">
      <tspan x="951.734" y="-989.78" fill="#fff">12</tspan>
    </text>
    <text x="-999.219" y="75.329" font-family="Sans" font-size="40" letter-spacing="0" transform="rotate(-88.463)" word-spacing="0">
      <tspan x="-999.219" y="75.329" fill="#fff">13</tspan>
    </text>
    <text x="-879.263" y="72.107" font-family="Sans" font-size="40" letter-spacing="0" transform="rotate(-88.463)" word-spacing="0">
      <tspan x="-879.263" y="72.107" fill="#fff">14</tspan>
    </text>
    <text x="-771.302" y="69.206" font-family="Sans" font-size="40" letter-spacing="0" transform="rotate(-88.463)" word-spacing="0">
      <tspan x="-771.302" y="69.206" fill="#fff">15</tspan>
    </text>
  </g>
</svg>
