<svg width="24" height="24" xmlns="http://www.w3.org/2000/svg">

 <g>
  <title>background</title>
  <rect fill="none" id="canvas_background" height="402" width="582" y="-1" x="-1"/>
 </g>
 <g>
  <title>Layer 1</title>
  <path fill="#ffffff" id="svg_3" d="m14.5,3l-1,3l-1,-3c-0.184,-0.553 0.114,-1.149 0.666,-1.333c0.553,-0.185 1.15,0.114 1.334,0.666c0.075,0.226 0.07,0.458 0,0.667z"/>
  <path fill="#ffffff" id="svg_5" d="m19.864,6.05l-2.829,1.415l1.415,-2.829c0.261,-0.521 0.894,-0.731 1.414,-0.472c0.521,0.261 0.731,0.894 0.472,1.415c-0.107,0.212 -0.274,0.372 -0.472,0.471z"/>
  <path fill="#ffffff" id="svg_7" d="m21.5,12l-3,-1l3,-1c0.553,-0.185 1.149,0.114 1.334,0.667c0.184,0.552 -0.115,1.148 -0.668,1.333c-0.225,0.075 -0.457,0.069 -0.666,0z"/>
  <path fill="#ffffff" id="svg_9" d="m8.55,4.636l1.415,2.829l-2.829,-1.415c-0.521,-0.261 -0.732,-0.894 -0.472,-1.414c0.261,-0.521 0.895,-0.731 1.414,-0.472c0.213,0.107 0.373,0.274 0.472,0.472z"/>
  <path fill="#ffffff" id="svg_10" d="m17.776,12.342c0.139,-0.424 0.224,-0.871 0.224,-1.342c0,-2.481 -2.019,-4.5 -4.5,-4.5c-1.34,0 -2.537,0.594 -3.357,1.528c-0.049,-0.007 -0.092,-0.028 -0.143,-0.028c-1.776,0 -3.369,0.78 -4.469,2.011c-0.24,-0.08 -0.472,-0.086 -0.697,-0.011c-0.553,0.185 -0.852,0.781 -0.668,1.333c0.057,0.167 0.158,0.299 0.277,0.411c-0.283,0.697 -0.443,1.458 -0.443,2.256c0,0.042 0,0.084 0.002,0.126c-1.725,0.445 -3.002,2.013 -3.002,3.874c0,2.206 1.795,4 4,4l11,0c2.757,0 5,-2.243 5,-5c0,-2.129 -1.344,-3.939 -3.224,-4.658zm-4.276,-3.842c1.379,0 2.5,1.121 2.5,2.5c0,0.366 -0.096,0.706 -0.238,1.019c-0.354,0.021 -0.72,0.074 -1.118,0.188c-0.521,-1.353 -1.604,-2.415 -2.967,-2.905c0.456,-0.49 1.102,-0.802 1.823,-0.802zm2.5,11.5l-11,0c-1.104,0 -2,-0.897 -2,-2s0.896,-2 1.908,-2.006l1.422,0.016l-0.248,-1.202c-0.055,-0.263 -0.082,-0.536 -0.082,-0.808c0,-2.206 1.795,-4 4,-4c0.024,0 0.045,-0.013 0.069,-0.014c1.904,0.055 3.495,1.406 3.847,3.27c0.031,0.078 0.022,0.131 0.038,0.186c0.123,0.436 0.517,0.706 0.946,0.712c0.106,-0.001 0.197,0.003 0.289,-0.023c0.312,-0.09 0.569,-0.131 0.811,-0.131c1.654,0 3,1.346 3,3s-1.346,3 -3,3z"/>
 </g>
</svg>