<?xml version="1.0" encoding="UTF-8" ?>
<!DOCTYPE svg PUBLIC "-//W3C//DTD SVG 1.1//EN" "http://www.w3.org/Graphics/SVG/1.1/DTD/svg11.dtd">
<svg width="1232pt" height="832pt" viewBox="0 0 1232 832" version="1.1" xmlns="http://www.w3.org/2000/svg">
<path fill="#00a4b4" stroke="#00a4b4" stroke-width="0.09375" opacity="1.00" d=" M 237.42 129.27 C 296.27 82.65 370.86 56.27 445.97 56.08 C 501.35 55.36 556.83 68.56 605.99 94.07 C 659.42 121.68 705.31 163.65 737.58 214.41 C 756.21 243.62 770.35 275.68 779.34 309.14 C 775.21 303.84 770.43 299.07 765.56 294.45 C 756.46 285.99 741.50 285.28 731.42 292.37 C 726.53 296.43 721.68 301.41 720.41 307.86 C 717.93 316.47 719.88 326.31 725.73 333.14 C 729.58 337.64 734.04 341.62 737.46 346.50 C 755.76 370.96 757.29 406.80 740.41 432.38 C 735.55 442.07 724.65 448.82 724.22 460.49 C 722.44 473.51 731.43 486.79 744.07 490.22 C 750.33 492.14 757.13 491.37 763.17 489.07 C 772.22 484.37 777.67 475.44 784.04 467.87 C 777.19 498.75 766.75 528.90 751.91 556.87 C 719.59 618.60 667.90 669.94 605.98 701.88 C 566.58 722.31 523.14 734.91 478.91 738.69 C 434.65 742.50 389.64 737.85 347.22 724.58 C 277.80 703.09 215.84 658.63 173.00 599.96 C 150.78 569.68 133.60 535.70 122.42 499.84 C 101.34 432.31 101.90 358.22 124.05 291.03 C 144.87 227.53 184.90 170.56 237.42 129.27 M 180.40 316.01 C 180.35 328.22 180.39 340.42 180.38 352.62 C 183.05 352.62 185.71 352.61 188.38 352.61 C 188.38 347.35 188.38 342.08 188.38 336.81 C 192.79 336.82 197.20 336.82 201.61 336.81 C 201.62 342.08 201.62 347.34 201.62 352.61 C 204.29 352.61 206.95 352.62 209.62 352.62 C 209.62 340.41 209.61 328.21 209.62 316.00 C 206.97 316.00 204.31 316.00 201.66 316.01 C 201.60 320.67 201.61 325.33 201.62 329.99 C 197.21 330.00 192.79 330.00 188.38 329.99 C 188.38 325.33 188.38 320.66 188.38 316.00 C 185.72 316.00 183.06 316.00 180.40 316.01 M 228.23 316.22 C 221.97 317.83 217.42 323.77 216.68 330.07 C 215.76 336.24 216.55 343.28 220.99 348.01 C 226.93 354.05 237.25 354.60 244.32 350.31 C 251.32 345.76 252.71 336.34 251.12 328.73 C 250.11 323.42 246.37 318.65 241.27 316.74 C 237.11 315.27 232.49 315.12 228.23 316.22 M 257.40 316.01 C 257.35 328.21 257.39 340.42 257.38 352.62 C 259.92 352.61 262.46 352.62 265.00 352.62 C 264.77 344.00 265.66 335.41 265.36 326.79 C 267.35 335.47 269.88 344.01 272.08 352.64 C 274.44 352.62 276.81 352.60 279.17 352.59 C 281.39 344.11 283.64 335.63 286.06 327.21 C 286.32 335.68 286.12 344.15 286.18 352.62 C 288.72 352.62 291.27 352.62 293.82 352.62 C 293.82 340.42 293.82 328.21 293.82 316.00 C 289.91 316.00 285.99 316.00 282.08 315.99 C 279.84 323.76 277.75 331.58 275.63 339.38 C 273.55 331.56 271.29 323.79 269.09 316.00 C 265.20 316.00 261.30 315.99 257.40 316.01 M 301.20 316.02 C 301.16 328.22 301.19 340.42 301.18 352.62 C 310.39 352.62 319.61 352.62 328.82 352.62 C 328.82 350.29 328.82 347.95 328.82 345.62 C 322.21 345.62 315.61 345.62 309.00 345.62 C 309.00 342.69 309.00 339.75 309.00 336.82 C 314.94 336.82 320.88 336.82 326.82 336.82 C 326.82 334.54 326.82 332.27 326.82 330.00 C 320.88 330.00 314.94 330.00 309.00 330.00 C 309.00 327.60 309.00 325.21 309.00 322.82 C 315.33 322.82 321.66 322.82 328.00 322.82 C 328.00 320.55 328.00 318.27 328.00 316.00 C 319.07 316.01 310.13 315.98 301.20 316.02 M 662.07 330.12 C 662.12 338.51 662.16 346.91 662.05 355.30 C 664.34 355.30 666.64 355.30 668.95 355.30 C 668.83 346.91 668.87 338.51 668.93 330.12 C 666.64 330.11 664.35 330.11 662.07 330.12 M 618.36 355.58 C 623.24 360.38 628.06 365.24 632.89 370.09 C 634.57 368.35 636.27 366.64 638.00 364.96 C 633.09 360.18 628.29 355.28 623.43 350.46 C 621.73 352.16 620.05 353.87 618.36 355.58 M 693.88 364.94 C 695.61 366.63 697.33 368.34 699.03 370.08 C 703.79 365.19 708.65 360.39 713.50 355.58 C 711.80 353.87 710.10 352.16 708.40 350.46 C 703.59 355.32 698.78 360.17 693.88 364.94 M 178.51 366.00 C 182.98 385.35 187.58 404.66 192.14 423.98 C 196.62 424.01 201.09 424.00 205.57 424.00 C 209.28 410.22 213.01 396.44 216.71 382.65 C 220.19 396.46 223.92 410.21 227.49 424.00 C 232.08 424.00 236.67 424.00 241.26 424.00 C 245.73 404.66 250.36 385.37 254.91 366.05 C 250.63 365.98 246.34 365.99 242.06 366.00 C 239.35 378.75 236.51 391.47 233.93 404.25 C 230.84 391.48 227.56 378.76 224.43 366.00 C 219.47 366.00 214.53 365.99 209.58 366.02 C 206.25 378.63 202.73 391.20 199.45 403.83 C 196.96 391.18 194.00 378.63 191.35 366.02 C 187.07 365.99 182.79 366.00 178.51 366.00 M 262.02 366.02 C 261.99 385.34 261.99 404.66 262.02 423.98 C 276.88 424.01 291.74 424.01 306.60 423.99 C 306.62 420.46 306.62 416.93 306.59 413.41 C 295.93 413.35 285.27 413.39 274.61 413.39 C 274.62 408.59 274.62 403.80 274.62 399.00 C 284.19 398.99 293.76 399.01 303.34 398.99 C 303.38 395.48 303.39 391.97 303.39 388.47 C 293.80 388.28 284.20 388.42 274.61 388.39 C 274.62 384.46 274.62 380.53 274.61 376.61 C 284.94 376.61 295.27 376.65 305.59 376.59 C 305.62 373.06 305.62 369.54 305.60 366.02 C 291.07 365.99 276.54 365.99 262.02 366.02 M 334.06 366.00 C 326.58 385.32 318.94 404.59 311.64 423.98 C 316.08 424.01 320.52 424.00 324.97 424.00 C 326.58 419.66 328.11 415.30 329.77 410.97 C 337.13 411.03 344.50 410.99 351.87 411.00 C 353.49 415.33 355.14 419.65 356.71 424.00 C 361.19 424.00 365.68 424.03 370.16 423.94 C 362.61 404.59 355.00 385.27 347.32 365.97 C 342.90 366.01 338.48 366.00 334.06 366.00 M 367.66 366.01 C 367.61 369.51 367.61 373.02 367.61 376.52 C 373.28 376.69 378.95 376.61 384.62 376.60 C 384.64 392.40 384.57 408.19 384.66 423.99 C 388.88 424.00 393.11 424.00 397.34 423.99 C 397.43 408.19 397.36 392.40 397.38 376.60 C 403.04 376.62 408.72 376.68 414.39 376.53 C 414.39 373.02 414.38 369.51 414.34 366.01 C 398.78 365.99 383.22 365.99 367.66 366.01 M 422.62 366.00 C 422.62 385.33 422.62 404.67 422.62 424.00 C 426.74 424.00 430.86 424.00 434.98 423.98 C 435.02 415.65 434.99 407.33 435.00 399.00 C 442.33 399.00 449.67 399.00 457.00 399.00 C 457.00 407.33 457.00 415.67 457.00 424.00 C 461.11 424.00 465.22 424.00 469.34 423.99 C 469.41 404.66 469.41 385.34 469.34 366.01 C 465.22 365.99 461.11 366.00 457.00 366.00 C 457.00 373.46 457.00 380.92 457.00 388.38 C 449.66 388.38 442.33 388.38 435.00 388.38 C 434.99 380.92 435.02 373.47 434.98 366.02 C 430.86 365.99 426.74 366.00 422.62 366.00 M 482.40 366.01 C 482.37 385.34 482.37 404.66 482.40 423.99 C 497.21 424.02 512.02 423.99 526.82 424.00 C 526.82 420.46 526.82 416.92 526.82 413.38 C 516.15 413.38 505.48 413.38 494.82 413.38 C 494.82 408.59 494.82 403.79 494.82 399.00 C 504.42 398.99 514.02 399.01 523.62 399.00 C 523.61 395.45 523.61 391.92 523.62 388.38 C 514.02 388.38 504.42 388.38 494.82 388.38 C 494.82 384.46 494.82 380.54 494.82 376.62 C 505.15 376.62 515.48 376.61 525.82 376.62 C 525.82 373.08 525.82 369.54 525.82 366.00 C 511.35 366.00 496.88 365.98 482.40 366.01 M 538.02 366.02 C 537.99 385.34 537.99 404.66 538.02 423.98 C 542.13 424.00 546.26 424.00 550.38 424.00 C 550.38 415.97 550.38 407.94 550.38 399.91 C 554.33 400.02 559.02 399.84 561.77 403.25 C 567.26 409.62 571.38 417.02 576.04 423.99 C 580.93 424.00 585.82 424.02 590.71 423.97 C 587.58 418.56 584.17 413.33 580.89 408.01 C 578.64 404.27 575.64 401.05 572.15 398.44 C 575.35 397.58 578.70 396.56 581.12 394.15 C 587.51 387.93 587.19 376.39 580.90 370.21 C 577.24 366.66 571.87 366.11 567.03 366.01 C 557.36 365.97 547.69 366.00 538.02 366.02 M 657.46 366.73 C 650.47 368.67 644.12 372.94 639.85 378.83 C 631.49 389.82 631.46 406.17 639.82 417.17 C 648.58 429.59 666.57 434.16 680.12 427.16 C 694.74 420.40 702.35 401.88 696.40 386.85 C 691.09 371.45 673.11 362.07 657.46 366.73 M 597.06 395.14 C 597.06 397.38 597.06 399.62 597.06 401.86 C 605.48 401.91 613.90 401.88 622.32 401.88 C 622.31 399.62 622.31 397.37 622.32 395.12 C 613.90 395.12 605.48 395.08 597.06 395.14 M 708.68 395.12 C 708.67 397.37 708.67 399.62 708.68 401.88 C 717.10 401.88 725.52 401.91 733.94 401.86 C 733.92 399.62 733.92 397.38 733.94 395.14 C 725.52 395.09 717.10 395.12 708.68 395.12 M 701.19 414.21 C 700.00 414.34 699.29 416.77 700.84 416.84 C 702.01 416.70 702.73 414.27 701.19 414.21 M 693.92 431.12 C 698.79 435.91 703.61 440.76 708.42 445.62 C 710.12 443.92 711.82 442.23 713.53 440.54 C 708.71 435.68 703.83 430.89 699.05 426.00 C 697.36 427.73 695.65 429.43 693.92 431.12 M 618.34 440.60 C 620.04 442.26 621.73 443.94 623.41 445.63 C 628.28 440.80 633.09 435.93 637.97 431.12 C 636.25 429.43 634.55 427.74 632.88 426.02 C 628.05 430.89 623.16 435.71 618.34 440.60 M 662.05 441.70 C 662.17 450.09 662.12 458.49 662.07 466.88 C 664.35 466.89 666.64 466.89 668.93 466.88 C 668.87 458.49 668.83 450.09 668.95 441.70 C 666.64 441.69 664.34 441.69 662.05 441.70 M 373.20 444.19 C 367.99 446.80 366.45 454.41 370.18 458.88 C 373.27 462.81 378.62 463.36 383.12 464.61 C 385.16 465.21 387.95 465.60 388.67 467.99 C 388.69 472.44 382.97 473.83 379.49 472.62 C 376.38 471.95 375.32 468.71 374.31 466.12 C 371.79 466.41 369.27 466.70 366.77 467.05 C 367.16 472.90 371.12 478.61 377.19 479.53 C 382.06 480.10 387.47 480.34 391.84 477.73 C 397.60 474.27 398.40 465.06 393.38 460.63 C 388.63 456.71 381.84 457.45 376.77 454.27 C 373.75 451.38 379.16 448.90 381.76 449.47 C 385.14 448.97 386.82 451.95 387.79 454.64 C 390.41 454.62 393.03 454.59 395.65 454.48 C 395.21 450.44 393.72 446.09 389.83 444.16 C 384.69 441.74 378.32 441.68 373.20 444.19 M 401.00 443.00 C 401.00 445.20 401.00 447.41 401.00 449.62 C 404.46 449.62 407.92 449.62 411.39 449.61 C 411.38 459.53 411.38 469.46 411.39 479.38 C 414.05 479.38 416.71 479.38 419.37 479.38 C 419.38 469.45 419.38 459.53 419.38 449.60 C 422.85 449.62 426.33 449.62 429.82 449.62 C 429.82 447.41 429.82 445.21 429.82 443.00 C 420.21 442.99 410.61 443.00 401.00 443.00 M 442.06 442.99 C 437.30 455.09 432.56 467.19 427.90 479.33 C 430.75 479.36 433.61 479.39 436.47 479.41 C 437.48 476.75 438.45 474.08 439.39 471.40 C 444.01 471.37 448.64 471.37 453.26 471.39 C 454.26 474.06 455.28 476.73 456.33 479.40 C 459.21 479.38 462.10 479.37 464.99 479.35 C 460.13 467.25 455.37 455.12 450.54 443.01 C 447.71 443.00 444.88 443.00 442.06 442.99 M 462.66 443.01 C 462.63 445.21 462.61 447.40 462.61 449.61 C 466.13 449.62 469.66 449.62 473.18 449.62 C 473.17 459.54 473.18 469.46 473.18 479.38 C 475.91 479.38 478.64 479.38 481.37 479.38 C 481.38 469.45 481.38 459.53 481.38 449.60 C 484.85 449.62 488.33 449.62 491.82 449.62 C 491.82 447.41 491.82 445.20 491.82 443.00 C 482.10 443.00 472.38 442.99 462.66 443.01 M 497.18 443.00 C 497.18 455.13 497.18 467.25 497.18 479.38 C 499.78 479.38 502.39 479.38 505.00 479.38 C 505.00 467.25 505.00 455.13 505.00 443.00 C 502.39 443.00 499.78 443.00 497.18 443.00 M 521.47 443.60 C 514.10 446.26 510.63 454.60 511.15 461.99 C 510.94 469.10 514.90 476.64 521.95 478.89 C 528.42 480.85 536.36 480.31 541.39 475.34 C 547.26 469.34 547.56 459.64 544.79 452.13 C 541.23 443.23 529.87 440.40 521.47 443.60 M 553.00 443.00 C 553.00 455.12 553.00 467.25 553.00 479.38 C 555.54 479.38 558.07 479.37 560.61 479.38 C 560.60 472.07 560.67 464.76 560.57 457.46 C 564.89 464.86 569.48 472.10 573.99 479.39 C 576.66 479.38 579.32 479.38 582.00 479.38 C 582.00 467.25 582.00 455.12 582.00 443.00 C 579.46 443.00 576.92 442.99 574.38 443.00 C 574.41 450.36 574.31 457.73 574.45 465.10 C 570.02 457.69 565.41 450.39 560.92 443.02 C 558.28 443.00 555.64 442.99 553.00 443.00 Z" />
<path fill="#9aba2f" stroke="#9aba2f" stroke-width="0.09375" opacity="1.00" d=" M 720.02 58.66 C 765.76 53.05 812.66 56.36 856.99 69.07 C 921.29 87.29 979.78 125.09 1023.11 175.95 C 1057.05 215.63 1081.78 263.17 1094.55 313.81 C 1107.85 366.33 1108.44 422.02 1096.32 474.82 C 1081.38 540.43 1046.29 601.21 997.18 647.18 C 968.10 674.57 934.17 696.82 897.43 712.51 C 845.97 734.70 788.97 743.53 733.19 738.70 C 688.91 734.94 645.44 722.31 605.98 701.88 C 667.90 669.94 719.59 618.60 751.91 556.87 C 766.75 528.90 777.19 498.75 784.04 467.87 C 788.87 462.31 791.52 455.39 795.07 449.03 C 812.54 413.10 812.38 369.18 794.59 333.39 C 790.45 324.76 785.21 316.69 779.34 309.14 C 770.35 275.68 756.21 243.62 737.58 214.41 C 705.31 163.65 659.42 121.68 605.99 94.07 C 641.52 75.68 680.31 63.60 720.02 58.66 M 887.44 155.39 C 883.09 159.20 880.81 164.73 879.33 170.19 C 877.18 179.87 880.86 190.23 888.10 196.88 C 913.01 220.54 933.61 248.80 947.97 280.03 C 961.86 309.80 970.16 342.12 972.55 374.87 C 975.62 417.74 968.57 461.37 951.80 500.93 C 949.37 505.32 948.26 510.33 945.54 514.57 C 942.54 519.14 941.21 524.57 938.06 529.04 C 932.86 536.31 929.44 544.72 923.70 551.61 C 917.23 559.50 911.51 568.00 904.60 575.52 C 900.22 580.04 896.24 585.04 893.74 590.87 C 889.40 602.74 894.33 617.15 905.17 623.74 C 913.95 629.42 926.08 629.32 934.90 623.87 C 943.47 616.47 950.63 607.60 957.99 599.03 C 966.19 589.96 971.80 578.97 979.20 569.30 C 982.93 564.11 984.99 557.95 988.72 552.75 C 992.06 548.09 993.50 542.43 996.51 537.58 C 997.98 535.19 999.10 532.60 1000.06 529.96 C 1030.85 462.49 1037.37 384.30 1018.74 312.49 C 1003.43 252.46 970.44 197.09 925.06 154.93 C 921.57 151.98 917.41 149.79 912.97 148.70 C 908.75 147.74 904.41 148.39 900.15 148.46 C 895.75 150.44 890.96 151.94 887.44 155.39 M 823.20 223.19 C 818.51 224.73 813.45 226.18 810.00 229.93 C 802.11 236.95 799.27 248.86 802.37 258.85 C 804.00 264.75 808.19 269.39 812.51 273.52 C 837.79 298.07 854.41 331.16 859.74 365.94 C 864.28 396.12 860.68 427.59 848.66 455.69 C 846.03 460.30 844.77 465.56 841.94 470.05 C 836.53 477.97 832.49 486.84 826.02 494.03 C 822.03 499.02 817.26 503.37 813.58 508.61 C 808.83 517.39 808.32 528.72 813.74 537.35 C 818.48 545.65 827.67 550.48 837.04 551.15 C 845.60 550.93 853.98 547.11 859.63 540.65 C 868.54 531.35 875.44 520.43 883.18 510.19 C 886.65 505.39 888.69 499.76 891.88 494.80 C 893.77 491.91 895.35 488.83 896.52 485.58 C 918.53 439.55 923.64 385.59 910.76 336.18 C 900.50 295.57 878.32 258.00 847.48 229.62 C 840.97 223.91 831.69 221.23 823.20 223.19 Z" />
<path fill="#f7f7f7" stroke="#f7f7f7" stroke-width="0.09375" opacity="1.00" d=" M 887.44 155.39 C 890.96 151.94 895.75 150.44 900.15 148.46 C 904.41 148.39 908.75 147.74 912.97 148.70 C 917.41 149.79 921.57 151.98 925.06 154.93 C 970.44 197.09 1003.43 252.46 1018.74 312.49 C 1037.37 384.30 1030.85 462.49 1000.06 529.96 C 999.10 532.60 997.98 535.19 996.51 537.58 C 993.50 542.43 992.06 548.09 988.72 552.75 C 984.99 557.95 982.93 564.11 979.20 569.30 C 971.80 578.97 966.19 589.96 957.99 599.03 C 950.63 607.60 943.47 616.47 934.90 623.87 C 926.08 629.32 913.95 629.42 905.17 623.74 C 894.33 617.15 889.40 602.74 893.74 590.87 C 896.24 585.04 900.22 580.04 904.60 575.52 C 911.51 568.00 917.23 559.50 923.70 551.61 C 929.44 544.72 932.86 536.31 938.06 529.04 C 941.21 524.57 942.54 519.14 945.54 514.57 C 948.26 510.33 949.37 505.32 951.80 500.93 C 968.57 461.37 975.62 417.74 972.55 374.87 C 970.16 342.12 961.86 309.80 947.97 280.03 C 933.61 248.80 913.01 220.54 888.10 196.88 C 880.86 190.23 877.18 179.87 879.33 170.19 C 880.81 164.73 883.09 159.20 887.44 155.39 Z" />
<path fill="#f7f7f7" stroke="#f7f7f7" stroke-width="0.09375" opacity="1.00" d=" M 823.20 223.19 C 831.69 221.23 840.97 223.91 847.48 229.62 C 878.32 258.00 900.50 295.57 910.76 336.18 C 923.64 385.59 918.53 439.55 896.52 485.58 C 895.35 488.83 893.77 491.91 891.88 494.80 C 888.69 499.76 886.65 505.39 883.18 510.19 C 875.44 520.43 868.54 531.35 859.63 540.65 C 853.98 547.11 845.60 550.93 837.04 551.15 C 827.67 550.48 818.48 545.65 813.74 537.35 C 808.32 528.72 808.83 517.39 813.58 508.61 C 817.26 503.37 822.03 499.02 826.02 494.03 C 832.49 486.84 836.53 477.97 841.94 470.05 C 844.77 465.56 846.03 460.30 848.66 455.69 C 860.68 427.59 864.28 396.12 859.74 365.94 C 854.41 331.16 837.79 298.07 812.51 273.52 C 808.19 269.39 804.00 264.75 802.37 258.85 C 799.27 248.86 802.11 236.95 810.00 229.93 C 813.45 226.18 818.51 224.73 823.20 223.19 Z" />
<path fill="#f7f7f7" stroke="#f7f7f7" stroke-width="0.09375" opacity="1.00" d=" M 731.42 292.37 C 741.50 285.28 756.46 285.99 765.56 294.45 C 770.43 299.07 775.21 303.84 779.34 309.14 C 785.21 316.69 790.45 324.76 794.59 333.39 C 812.38 369.18 812.54 413.10 795.07 449.03 C 791.52 455.39 788.87 462.31 784.04 467.87 C 777.67 475.44 772.22 484.37 763.17 489.07 C 757.13 491.37 750.33 492.14 744.07 490.22 C 731.43 486.79 722.44 473.51 724.22 460.49 C 724.65 448.82 735.55 442.07 740.41 432.38 C 757.29 406.80 755.76 370.96 737.46 346.50 C 734.04 341.62 729.58 337.64 725.73 333.14 C 719.88 326.31 717.93 316.47 720.41 307.86 C 721.68 301.41 726.53 296.43 731.42 292.37 Z" />
<path fill="#f7f7f7" stroke="#f7f7f7" stroke-width="0.09375" opacity="1.00" d=" M 180.40 316.01 C 183.06 316.00 185.72 316.00 188.38 316.00 C 188.38 320.66 188.38 325.33 188.38 329.99 C 192.79 330.00 197.21 330.00 201.62 329.99 C 201.61 325.33 201.60 320.67 201.66 316.01 C 204.31 316.00 206.97 316.00 209.62 316.00 C 209.61 328.21 209.62 340.41 209.62 352.62 C 206.95 352.62 204.29 352.61 201.62 352.61 C 201.62 347.34 201.62 342.08 201.61 336.81 C 197.20 336.82 192.79 336.82 188.38 336.81 C 188.38 342.08 188.38 347.35 188.38 352.61 C 185.71 352.61 183.05 352.62 180.38 352.62 C 180.39 340.42 180.35 328.22 180.40 316.01 Z" />
<path fill="#f7f7f7" stroke="#f7f7f7" stroke-width="0.09375" opacity="1.00" d=" M 228.23 316.22 C 232.49 315.12 237.11 315.27 241.27 316.74 C 246.37 318.65 250.11 323.42 251.12 328.73 C 252.71 336.34 251.32 345.76 244.32 350.31 C 237.25 354.60 226.93 354.05 220.99 348.01 C 216.55 343.28 215.76 336.24 216.68 330.07 C 217.42 323.77 221.97 317.83 228.23 316.22 M 230.25 323.23 C 227.09 324.52 225.03 327.71 224.68 331.04 C 224.04 335.48 224.41 340.80 228.10 343.89 C 231.91 347.28 238.42 346.55 241.43 342.46 C 244.19 338.35 244.15 332.85 242.71 328.27 C 241.03 323.32 234.86 321.34 230.25 323.23 Z" />
<path fill="#f7f7f7" stroke="#f7f7f7" stroke-width="0.09375" opacity="1.00" d=" M 257.40 316.01 C 261.30 315.99 265.20 316.00 269.09 316.00 C 271.29 323.79 273.55 331.56 275.63 339.38 C 277.75 331.58 279.84 323.76 282.08 315.99 C 285.99 316.00 289.91 316.00 293.82 316.00 C 293.82 328.21 293.82 340.42 293.82 352.62 C 291.27 352.62 288.72 352.62 286.18 352.62 C 286.12 344.15 286.32 335.68 286.06 327.21 C 283.64 335.63 281.39 344.11 279.17 352.59 C 276.81 352.60 274.44 352.62 272.08 352.64 C 269.88 344.01 267.35 335.47 265.36 326.79 C 265.66 335.41 264.77 344.00 265.00 352.62 C 262.46 352.62 259.92 352.61 257.38 352.62 C 257.39 340.42 257.35 328.21 257.40 316.01 Z" />
<path fill="#f7f7f7" stroke="#f7f7f7" stroke-width="0.09375" opacity="1.00" d=" M 301.20 316.02 C 310.13 315.98 319.07 316.01 328.00 316.00 C 328.00 318.27 328.00 320.55 328.00 322.82 C 321.66 322.82 315.33 322.82 309.00 322.82 C 309.00 325.21 309.00 327.60 309.00 330.00 C 314.94 330.00 320.88 330.00 326.82 330.00 C 326.82 332.27 326.82 334.54 326.82 336.82 C 320.88 336.82 314.94 336.82 309.00 336.82 C 309.00 339.75 309.00 342.69 309.00 345.62 C 315.61 345.62 322.21 345.62 328.82 345.62 C 328.82 347.95 328.82 350.29 328.82 352.62 C 319.61 352.62 310.39 352.62 301.18 352.62 C 301.19 340.42 301.16 328.22 301.20 316.02 Z" />
<path fill="#00a4b4" stroke="#00a4b4" stroke-width="0.09375" opacity="1.00" d=" M 230.25 323.23 C 234.86 321.34 241.03 323.32 242.71 328.27 C 244.15 332.85 244.19 338.35 241.43 342.46 C 238.42 346.55 231.91 347.28 228.10 343.89 C 224.41 340.80 224.04 335.48 224.68 331.04 C 225.03 327.71 227.09 324.52 230.25 323.23 Z" />
<path fill="#f7f7f7" stroke="#f7f7f7" stroke-width="0.09375" opacity="1.00" d=" M 662.07 330.12 C 664.35 330.11 666.64 330.11 668.93 330.12 C 668.87 338.51 668.83 346.91 668.95 355.30 C 666.64 355.30 664.34 355.30 662.05 355.30 C 662.16 346.91 662.12 338.51 662.07 330.12 Z" />
<path fill="#f7f7f7" stroke="#f7f7f7" stroke-width="0.09375" opacity="1.00" d=" M 618.36 355.58 C 620.05 353.87 621.73 352.16 623.43 350.46 C 628.29 355.28 633.09 360.18 638.00 364.96 C 636.27 366.64 634.57 368.35 632.89 370.09 C 628.06 365.24 623.24 360.38 618.36 355.58 Z" />
<path fill="#f7f7f7" stroke="#f7f7f7" stroke-width="0.09375" opacity="1.00" d=" M 693.88 364.94 C 698.78 360.17 703.59 355.32 708.40 350.46 C 710.10 352.16 711.80 353.87 713.50 355.58 C 708.65 360.39 703.79 365.19 699.03 370.08 C 697.33 368.34 695.61 366.63 693.88 364.94 Z" />
<path fill="#f7f7f7" stroke="#f7f7f7" stroke-width="0.09375" opacity="1.00" d=" M 178.51 366.00 C 182.79 366.00 187.07 365.99 191.35 366.02 C 194.00 378.63 196.96 391.18 199.45 403.83 C 202.73 391.20 206.25 378.63 209.58 366.02 C 214.53 365.99 219.47 366.00 224.43 366.00 C 227.56 378.76 230.84 391.48 233.93 404.25 C 236.51 391.47 239.35 378.75 242.06 366.00 C 246.34 365.99 250.63 365.98 254.91 366.05 C 250.36 385.37 245.73 404.66 241.26 424.00 C 236.67 424.00 232.08 424.00 227.49 424.00 C 223.92 410.21 220.19 396.46 216.71 382.65 C 213.01 396.44 209.28 410.22 205.57 424.00 C 201.09 424.00 196.62 424.01 192.14 423.98 C 187.58 404.66 182.98 385.35 178.51 366.00 Z" />
<path fill="#f7f7f7" stroke="#f7f7f7" stroke-width="0.09375" opacity="1.00" d=" M 262.02 366.02 C 276.54 365.99 291.07 365.99 305.60 366.02 C 305.62 369.54 305.62 373.06 305.59 376.59 C 295.27 376.65 284.94 376.61 274.61 376.61 C 274.62 380.53 274.62 384.46 274.61 388.39 C 284.20 388.42 293.80 388.28 303.39 388.47 C 303.39 391.97 303.38 395.48 303.34 398.99 C 293.76 399.01 284.19 398.99 274.62 399.00 C 274.62 403.80 274.62 408.59 274.61 413.39 C 285.27 413.39 295.93 413.35 306.59 413.41 C 306.62 416.93 306.62 420.46 306.60 423.99 C 291.74 424.01 276.88 424.01 262.02 423.98 C 261.99 404.66 261.99 385.34 262.02 366.02 Z" />
<path fill="#f7f7f7" stroke="#f7f7f7" stroke-width="0.09375" opacity="1.00" d=" M 334.06 366.00 C 338.48 366.00 342.90 366.01 347.32 365.97 C 355.00 385.27 362.61 404.59 370.16 423.94 C 365.68 424.03 361.19 424.00 356.71 424.00 C 355.14 419.65 353.49 415.33 351.87 411.00 C 344.50 410.99 337.13 411.03 329.77 410.97 C 328.11 415.30 326.58 419.66 324.97 424.00 C 320.52 424.00 316.08 424.01 311.64 423.98 C 318.94 404.59 326.58 385.32 334.06 366.00 M 340.63 381.00 C 338.31 387.48 335.98 393.95 333.56 400.39 C 338.33 400.37 343.10 400.36 347.88 400.42 C 345.54 393.92 342.96 387.50 340.63 381.00 Z" />
<path fill="#f7f7f7" stroke="#f7f7f7" stroke-width="0.09375" opacity="1.00" d=" M 367.66 366.01 C 383.22 365.99 398.78 365.99 414.34 366.01 C 414.38 369.51 414.39 373.02 414.39 376.53 C 408.72 376.68 403.04 376.62 397.38 376.60 C 397.36 392.40 397.43 408.19 397.34 423.99 C 393.11 424.00 388.88 424.00 384.66 423.99 C 384.57 408.19 384.64 392.40 384.62 376.60 C 378.95 376.61 373.28 376.69 367.61 376.52 C 367.61 373.02 367.61 369.51 367.66 366.01 Z" />
<path fill="#f7f7f7" stroke="#f7f7f7" stroke-width="0.09375" opacity="1.00" d=" M 422.62 366.00 C 426.74 366.00 430.86 365.99 434.98 366.02 C 435.02 373.47 434.99 380.92 435.00 388.38 C 442.33 388.38 449.66 388.38 457.00 388.38 C 457.00 380.92 457.00 373.46 457.00 366.00 C 461.11 366.00 465.22 365.99 469.34 366.01 C 469.41 385.34 469.41 404.66 469.34 423.99 C 465.22 424.00 461.11 424.00 457.00 424.00 C 457.00 415.67 457.00 407.33 457.00 399.00 C 449.67 399.00 442.33 399.00 435.00 399.00 C 434.99 407.33 435.02 415.65 434.98 423.98 C 430.86 424.00 426.74 424.00 422.62 424.00 C 422.62 404.67 422.62 385.33 422.62 366.00 Z" />
<path fill="#f7f7f7" stroke="#f7f7f7" stroke-width="0.09375" opacity="1.00" d=" M 482.40 366.01 C 496.88 365.98 511.35 366.00 525.82 366.00 C 525.82 369.54 525.82 373.08 525.82 376.62 C 515.48 376.61 505.15 376.62 494.82 376.62 C 494.82 380.54 494.82 384.46 494.82 388.38 C 504.42 388.38 514.02 388.38 523.62 388.38 C 523.61 391.92 523.61 395.45 523.62 399.00 C 514.02 399.01 504.42 398.99 494.82 399.00 C 494.82 403.79 494.82 408.59 494.82 413.38 C 505.48 413.38 516.15 413.38 526.82 413.38 C 526.82 416.92 526.82 420.46 526.82 424.00 C 512.02 423.99 497.21 424.02 482.40 423.99 C 482.37 404.66 482.37 385.34 482.40 366.01 Z" />
<path fill="#f7f7f7" stroke="#f7f7f7" stroke-width="0.09375" opacity="1.00" d=" M 538.02 366.02 C 547.69 366.00 557.36 365.97 567.03 366.01 C 571.87 366.11 577.24 366.66 580.90 370.21 C 587.19 376.39 587.51 387.93 581.12 394.15 C 578.70 396.56 575.35 397.58 572.15 398.44 C 575.64 401.05 578.64 404.27 580.89 408.01 C 584.17 413.33 587.58 418.56 590.71 423.97 C 585.82 424.02 580.93 424.00 576.04 423.99 C 571.38 417.02 567.26 409.62 561.77 403.25 C 559.02 399.84 554.33 400.02 550.38 399.91 C 550.38 407.94 550.38 415.97 550.38 424.00 C 546.26 424.00 542.13 424.00 538.02 423.98 C 537.99 404.66 537.99 385.34 538.02 366.02 M 550.37 376.60 C 550.38 381.07 550.38 385.53 550.38 390.00 C 556.43 389.97 562.56 390.27 568.54 389.16 C 574.02 387.80 574.12 378.59 568.66 377.09 C 562.64 376.05 556.46 376.89 550.37 376.60 Z" />
<path fill="#f7f7f7" stroke="#f7f7f7" stroke-width="0.09375" opacity="1.00" d=" M 657.46 366.73 C 673.11 362.07 691.09 371.45 696.40 386.85 C 702.35 401.88 694.74 420.40 680.12 427.16 C 666.57 434.16 648.58 429.59 639.82 417.17 C 631.46 406.17 631.49 389.82 639.85 378.83 C 644.12 372.94 650.47 368.67 657.46 366.73 M 661.23 373.29 C 650.74 375.17 642.15 384.33 640.96 394.92 C 639.32 406.18 646.49 417.83 657.17 421.63 C 665.49 424.87 675.43 423.09 682.18 417.27 C 689.68 411.11 693.04 400.36 690.18 391.05 C 686.92 378.89 673.58 370.58 661.23 373.29 Z" />
<path fill="#00a4b4" stroke="#00a4b4" stroke-width="0.09375" opacity="1.00" d=" M 661.23 373.29 C 673.58 370.58 686.92 378.89 690.18 391.05 C 693.04 400.36 689.68 411.11 682.18 417.27 C 675.43 423.09 665.49 424.87 657.17 421.63 C 646.49 417.83 639.32 406.18 640.96 394.92 C 642.15 384.33 650.74 375.17 661.23 373.29 Z" />
<path fill="#00a4b4" stroke="#00a4b4" stroke-width="0.09375" opacity="1.00" d=" M 550.37 376.60 C 556.46 376.89 562.64 376.05 568.66 377.09 C 574.12 378.59 574.02 387.80 568.54 389.16 C 562.56 390.27 556.43 389.97 550.38 390.00 C 550.38 385.53 550.38 381.07 550.37 376.60 Z" />
<path fill="#00a4b4" stroke="#00a4b4" stroke-width="0.09375" opacity="1.00" d=" M 340.63 381.00 C 342.96 387.50 345.54 393.92 347.88 400.42 C 343.10 400.36 338.33 400.37 333.56 400.39 C 335.98 393.95 338.31 387.48 340.63 381.00 Z" />
<path fill="#f7f7f7" stroke="#f7f7f7" stroke-width="0.09375" opacity="1.00" d=" M 597.06 395.14 C 605.48 395.08 613.90 395.12 622.32 395.12 C 622.31 397.37 622.31 399.62 622.32 401.88 C 613.90 401.88 605.48 401.91 597.06 401.86 C 597.06 399.62 597.06 397.38 597.06 395.14 Z" />
<path fill="#f7f7f7" stroke="#f7f7f7" stroke-width="0.09375" opacity="1.00" d=" M 708.68 395.12 C 717.10 395.12 725.52 395.09 733.94 395.14 C 733.92 397.38 733.92 399.62 733.94 401.86 C 725.52 401.91 717.10 401.88 708.68 401.88 C 708.67 399.62 708.67 397.37 708.68 395.12 Z" />
<path fill="#31b4c1" stroke="#31b4c1" stroke-width="0.09375" opacity="1.00" d=" M 701.19 414.21 C 702.73 414.27 702.01 416.70 700.84 416.84 C 699.29 416.77 700.00 414.34 701.19 414.21 Z" />
<path fill="#f7f7f7" stroke="#f7f7f7" stroke-width="0.09375" opacity="1.00" d=" M 693.92 431.12 C 695.65 429.43 697.36 427.73 699.05 426.00 C 703.83 430.89 708.71 435.68 713.53 440.54 C 711.82 442.23 710.12 443.92 708.42 445.62 C 703.61 440.76 698.79 435.91 693.92 431.12 Z" />
<path fill="#f7f7f7" stroke="#f7f7f7" stroke-width="0.09375" opacity="1.00" d=" M 618.34 440.60 C 623.16 435.71 628.05 430.89 632.88 426.02 C 634.55 427.74 636.25 429.43 637.97 431.12 C 633.09 435.93 628.28 440.80 623.41 445.63 C 621.73 443.94 620.04 442.26 618.34 440.60 Z" />
<path fill="#f7f7f7" stroke="#f7f7f7" stroke-width="0.09375" opacity="1.00" d=" M 662.05 441.70 C 664.34 441.69 666.64 441.69 668.95 441.70 C 668.83 450.09 668.87 458.49 668.93 466.88 C 666.64 466.89 664.35 466.89 662.07 466.88 C 662.12 458.49 662.17 450.09 662.05 441.70 Z" />
<path fill="#f7f7f7" stroke="#f7f7f7" stroke-width="0.09375" opacity="1.00" d=" M 373.20 444.19 C 378.32 441.68 384.69 441.74 389.83 444.16 C 393.72 446.09 395.21 450.44 395.65 454.48 C 393.03 454.59 390.41 454.62 387.79 454.64 C 386.82 451.95 385.14 448.97 381.76 449.47 C 379.16 448.90 373.75 451.38 376.77 454.27 C 381.84 457.45 388.63 456.71 393.38 460.63 C 398.40 465.06 397.60 474.27 391.84 477.73 C 387.47 480.34 382.06 480.10 377.19 479.53 C 371.12 478.61 367.16 472.90 366.77 467.05 C 369.27 466.70 371.79 466.41 374.31 466.12 C 375.32 468.71 376.38 471.95 379.49 472.62 C 382.97 473.83 388.69 472.44 388.67 467.99 C 387.95 465.60 385.16 465.21 383.12 464.61 C 378.62 463.36 373.27 462.81 370.18 458.88 C 366.45 454.41 367.99 446.80 373.20 444.19 Z" />
<path fill="#f7f7f7" stroke="#f7f7f7" stroke-width="0.09375" opacity="1.00" d=" M 401.00 443.00 C 410.61 443.00 420.21 442.99 429.82 443.00 C 429.82 445.21 429.82 447.41 429.82 449.62 C 426.33 449.62 422.85 449.62 419.38 449.60 C 419.38 459.53 419.38 469.45 419.37 479.38 C 416.71 479.38 414.05 479.38 411.39 479.38 C 411.38 469.46 411.38 459.53 411.39 449.61 C 407.92 449.62 404.46 449.62 401.00 449.62 C 401.00 447.41 401.00 445.20 401.00 443.00 Z" />
<path fill="#f7f7f7" stroke="#f7f7f7" stroke-width="0.09375" opacity="1.00" d=" M 442.06 442.99 C 444.88 443.00 447.71 443.00 450.54 443.01 C 455.37 455.12 460.13 467.25 464.99 479.35 C 462.10 479.37 459.21 479.38 456.33 479.40 C 455.28 476.73 454.26 474.06 453.26 471.39 C 448.64 471.37 444.01 471.37 439.39 471.40 C 438.45 474.08 437.48 476.75 436.47 479.41 C 433.61 479.39 430.75 479.36 427.90 479.33 C 432.56 467.19 437.30 455.09 442.06 442.99 M 441.95 464.64 C 444.88 464.62 447.81 464.62 450.75 464.64 C 449.24 460.71 447.78 456.77 446.34 452.82 C 444.82 456.73 443.36 460.68 441.95 464.64 Z" />
<path fill="#f7f7f7" stroke="#f7f7f7" stroke-width="0.09375" opacity="1.00" d=" M 462.66 443.01 C 472.38 442.99 482.10 443.00 491.82 443.00 C 491.82 445.20 491.82 447.41 491.82 449.62 C 488.33 449.62 484.85 449.62 481.38 449.60 C 481.38 459.53 481.38 469.45 481.37 479.38 C 478.64 479.38 475.91 479.38 473.18 479.38 C 473.18 469.46 473.17 459.54 473.18 449.62 C 469.66 449.62 466.13 449.62 462.61 449.61 C 462.61 447.40 462.63 445.21 462.66 443.01 Z" />
<path fill="#f7f7f7" stroke="#f7f7f7" stroke-width="0.09375" opacity="1.00" d=" M 497.18 443.00 C 499.78 443.00 502.39 443.00 505.00 443.00 C 505.00 455.13 505.00 467.25 505.00 479.38 C 502.39 479.38 499.78 479.38 497.18 479.38 C 497.18 467.25 497.18 455.13 497.18 443.00 Z" />
<path fill="#f7f7f7" stroke="#f7f7f7" stroke-width="0.09375" opacity="1.00" d=" M 521.47 443.60 C 529.87 440.40 541.23 443.23 544.79 452.13 C 547.56 459.64 547.26 469.34 541.39 475.34 C 536.36 480.31 528.42 480.85 521.95 478.89 C 514.90 476.64 510.94 469.10 511.15 461.99 C 510.63 454.60 514.10 446.26 521.47 443.60 M 524.43 450.44 C 520.44 452.29 519.19 456.98 519.11 461.03 C 519.14 465.08 520.36 469.80 524.28 471.78 C 528.61 474.46 534.94 472.52 537.05 467.90 C 538.93 463.81 538.84 458.89 537.28 454.73 C 535.35 449.83 528.91 448.24 524.43 450.44 Z" />
<path fill="#f7f7f7" stroke="#f7f7f7" stroke-width="0.09375" opacity="1.00" d=" M 553.00 443.00 C 555.64 442.99 558.28 443.00 560.92 443.02 C 565.41 450.39 570.02 457.69 574.45 465.10 C 574.31 457.73 574.41 450.36 574.38 443.00 C 576.92 442.99 579.46 443.00 582.00 443.00 C 582.00 455.12 582.00 467.25 582.00 479.38 C 579.32 479.38 576.66 479.38 573.99 479.39 C 569.48 472.10 564.89 464.86 560.57 457.46 C 560.67 464.76 560.60 472.07 560.61 479.38 C 558.07 479.37 555.54 479.38 553.00 479.38 C 553.00 467.25 553.00 455.12 553.00 443.00 Z" />
<path fill="#00a4b4" stroke="#00a4b4" stroke-width="0.09375" opacity="1.00" d=" M 524.43 450.44 C 528.91 448.24 535.35 449.83 537.28 454.73 C 538.84 458.89 538.93 463.81 537.05 467.90 C 534.94 472.52 528.61 474.46 524.28 471.78 C 520.36 469.80 519.14 465.08 519.11 461.03 C 519.19 456.98 520.44 452.29 524.43 450.44 Z" />
<path fill="#00a4b4" stroke="#00a4b4" stroke-width="0.09375" opacity="1.00" d=" M 441.95 464.64 C 443.36 460.68 444.82 456.73 446.34 452.82 C 447.78 456.77 449.24 460.71 450.75 464.64 C 447.81 464.62 444.88 464.62 441.95 464.64 Z" />
</svg>
